nColumns=19
nRows=59
DataType=double
version=3
OpenSimVersion=4.1
endheader
time	ground_force_1_vx	ground_force_1_vy	ground_force_1_vz	ground_force_1_px	ground_force_1_py	ground_force_1_pz	ground_force_1_mx	ground_force_1_my	ground_force_1_mz	ground_force_2_vx	ground_force_2_vy	ground_force_2_vz	ground_force_2_px	ground_force_2_py	ground_force_2_pz	ground_force_2_mx	ground_force_2_my	ground_force_2_mz
1.35	0	0	0	-0.00177282	0	4.09087e-05	0	0	0	0	0	0	-0.00177275	0	4.06796e-05	0	0	0
1.35833	0	0	0	-0.00177282	0	4.09068e-05	0	0	0	0	0	0	-0.00177275	0	4.06755e-05	0	0	0
1.36667	0	0	0	-0.00177283	0	4.0905e-05	0	0	0	-12.7471	101.951	-1.48262	0.999657	0	-0.374781	0	-0.484189	0
1.375	0	0	0	-0.00177283	0	4.09031e-05	0	0	0	-12.2523	239.324	1.16034	1.0049	0	-0.378743	0	-0.628028	0
1.38333	0	0	0	-0.00177284	0	4.09013e-05	0	0	0	-9.11072	461.927	7.67717	1.00317	0	-0.375553	0	-0.378353	0
1.39167	0	0	0	-0.00177284	0	4.08994e-05	0	0	0	-13.4615	718.208	15.782	0.999795	0	-0.370983	-0	0.423902	-0
1.4	0	0	0	-0.00177285	0	4.08976e-05	0	0	0	-32.731	913.489	19.0217	0.997246	0	-0.367435	-0	1.78609	-0
1.40833	0	0	0	-0.00177285	0	4.08958e-05	0	0	0	-60.1693	1001.54	12.0568	0.99563	0	-0.36676	-0	3.48602	-0
1.41667	0	0	0	-0.00177286	0	4.0894e-05	0	0	0	-85.1716	1021.81	-1.01316	0.992304	0	-0.369769	-0	5.09693	-0
1.425	0	0	0	-0.00177286	0	4.08922e-05	0	0	0	-107.289	1040.63	-6.92627	0.986637	0	-0.373539	-0	6.1464	-0
1.43333	0	0	0	-0.00177287	0	4.08904e-05	0	0	0	-128.241	1089.76	3.43967	0.981076	0	-0.374011	-0	6.33406	-0
1.44167	0	0	0	-0.00177287	0	4.08886e-05	0	0	0	-142.976	1159.92	23.79	0.974931	0	-0.372395	-0	5.65953	-0
1.45	0	0	0	-0.00177288	0	4.08868e-05	0	0	0	-144.063	1226.83	39.5188	0.965879	0	-0.37281	-0	4.37255	-0
1.45833	0	0	0	-0.00177288	0	4.0885e-05	0	0	0	-131.502	1276.64	45.0792	0.954666	0	-0.375993	-0	2.80871	-0
1.46667	0	0	0	-0.00177289	0	4.08833e-05	0	0	0	-116.537	1312.46	48.5242	0.943756	0	-0.379206	-0	1.25549	-0
1.475	0	0	0	-0.00177289	0	4.08815e-05	0	0	0	-106.614	1342.4	58.1706	0.933734	0	-0.380125	0	-0.08183	0
1.48333	0	0	0	-0.0017729	0	4.08798e-05	0	0	0	-97.8571	1366.53	70.8457	0.923375	0	-0.379643	0	-1.06698	0
1.49167	0	0	0	-0.0017729	0	4.0878e-05	0	0	0	-85.8574	1377.58	77.2984	0.911974	0	-0.380266	0	-1.6431	0
1.5	0	0	0	-0.00177291	0	4.08763e-05	0	0	0	-72.5193	1372.81	75.4803	0.90007	0	-0.38255	0	-1.85505	0
1.50833	0	0	0	-0.00177291	0	4.08746e-05	0	0	0	-61.9177	1359.24	72.6568	0.8887	0	-0.384571	0	-1.82457	0
1.51667	0	0	0	-0.00177291	0	4.08729e-05	0	0	0	-53.4961	1344.72	74.6338	0.877939	0	-0.384645	0	-1.67338	0
1.525	0	0	0	-0.00177292	0	4.08713e-05	0	0	0	-43.0412	1328.06	78.1301	0.866915	0	-0.383624	0	-1.46118	0
1.53333	0	0	0	-0.00177292	0	4.08696e-05	0	0	0	-29.193	1301.8	76.2935	0.855222	0	-0.383531	0	-1.19081	0
1.54167	0	0	0	-0.00177293	0	4.08679e-05	0	0	0	-14.3057	1263.3	68.3388	0.843298	0	-0.384662	0	-0.85431	0
1.55	0	0	0	-0.00177293	0	4.08663e-05	0	0	0	-1.16272	1218.5	59.7403	0.831861	0	-0.385364	0	-0.458242	0
1.55833	0	0	0	-0.00177294	0	4.08647e-05	0	0	0	10.8431	1172.99	54.0698	0.820821	0	-0.384425	0	-0.011775	0
1.56667	0	0	0	-0.00177294	0	4.0863e-05	0	0	0	24.1373	1124.57	48.7214	0.809462	0	-0.382652	-0	0.484894	-0
1.575	0	0	0	-0.00177295	0	4.08614e-05	0	0	0	38.2955	1068.48	39.6409	0.797502	0	-0.381583	-0	1.02408	-0
1.58333	0	0	0	-0.00177295	0	4.08598e-05	0	0	0	50.9013	1005.69	27.3087	0.785164	0	-0.381286	-0	1.56643	-0
1.59167	0	0	0	-0.00177296	0	4.08583e-05	0	0	0	61.2696	941.195	15.8676	0.772648	0	-0.380464	-0	2.04393	-0
1.6	0	0	0	-0.00177296	0	4.08567e-05	0	0	0	71.3726	877.881	7.7821	0.759821	0	-0.378434	-0	2.39081	-0
1.60833	0	0	0	-0.00177296	0	4.08552e-05	0	0	0	81.5761	814.259	1.80963	0.746757	0	-0.376057	-0	2.57106	-0
1.61667	0	0	0	-0.00177297	0	4.08536e-05	0	0	0	89.3648	747.184	-3.95647	0.733681	0	-0.374496	-0	2.58168	-0
1.625	0	0	0	-0.00177297	0	4.08521e-05	0	0	0	93.4369	677.316	-9.23569	0.720494	0	-0.373645	-0	2.44058	-0
1.63333	0	0	0	-0.00177298	0	4.08506e-05	0	0	0	95.2906	609.135	-12.4124	0.706995	0	-0.372451	-0	2.17727	-0
1.64167	0	0	0	-0.00177298	0	4.08491e-05	0	0	0	96.3997	544.79	-12.9336	0.69311	0	-0.37049	-0	1.82954	-0
1.65	0	0	0	-0.00177298	0	4.08477e-05	0	0	0	96.0048	482.395	-11.9887	0.679205	0	-0.368562	-0	1.43681	-0
1.65833	0	0	0	-0.00177299	0	4.08462e-05	0	0	0	92.8117	420.345	-11.13	0.665845	0	-0.367718	-0	1.02729	-0
1.66667	0	0	0	-0.00177299	0	4.08448e-05	0	0	0	87.419	360.269	-10.7553	0.653094	0	-0.368033	-0	0.608757	-0
1.675	0	0	0	-0.001773	0	4.08433e-05	0	0	0	81.1409	305.318	-10.0702	0.64072	0	-0.368436	-0	0.174383	-0
1.68333	0	0	0	-0.001773	0	4.08419e-05	0	0	0	74.3111	257.262	-8.3688	0.629769	0	-0.367772	0	-0.276848	0
1.69167	0	0	0	-0.001773	0	4.08405e-05	0	0	0	66.7053	215.137	-6.04646	0.621582	0	-0.366109	0	-0.718699	0
1.7	0	0	0	-0.00177301	0	4.08392e-05	0	0	0	58.7333	176.829	-4.10198	0.614906	0	-0.364774	0	-1.08944	0
1.70833	0	0	0	-0.00177301	0	4.08378e-05	0	0	0	51.0762	142.041	-2.86055	0.607761	0	-0.364527	0	-1.30058	0
1.71667	0	0	0	-0.00177302	0	4.08365e-05	0	0	0	43.7021	112.324	-1.72165	0.600972	0	-0.363786	0	-1.25729	0
1.725	0	0	0	-0.00177302	0	4.08352e-05	0	0	0	36.3084	88.3438	-0.189623	0.594814	0	-0.359654	0	-0.886178	0
1.73333	0	0	0	-0.00177302	0	4.08339e-05	0	0	0	0	0	0	-0.00177293	0	4.05166e-05	0	0	0
1.74167	0	0	0	-0.00177303	0	4.08326e-05	0	0	0	0	0	0	-0.00177294	0	4.05138e-05	0	0	0
1.75	0	0	0	-0.00177303	0	4.08313e-05	0	0	0	0	0	0	-0.00177294	0	4.05111e-05	0	0	0
1.75833	0	0	0	-0.00177303	0	4.08301e-05	0	0	0	0	0	0	-0.00177294	0	4.05084e-05	0	0	0
1.76667	-7.12323	78.4712	-3.14748	0.949206	0	-0.293849	-0	3.29125	-0	0	0	0	-0.00177294	0	4.05057e-05	0	0	0
1.775	-7.51228	172.075	-4.67129	1.01028	0	-0.297654	-0	3.02891	-0	0	0	0	-0.00177295	0	4.05031e-05	0	0	0
1.78333	-2.96401	348.928	-2.19065	1.02428	0	-0.301999	-0	1.97391	-0	0	0	0	-0.00177295	0	4.05005e-05	0	0	0
1.79167	-3.06557	587.221	7.07621	1.02397	0	-0.304118	-0	0.278514	-0	0	0	0	-0.00177295	0	4.04979e-05	0	0	0
1.8	-19.994	809.015	21.5574	1.02134	0	-0.304805	0	-1.68487	0	0	0	0	-0.00177296	0	4.04954e-05	0	0	0
1.80833	-52.3769	942.5	33.4792	1.01971	0	-0.305326	0	-3.43859	0	0	0	0	-0.00177296	0	4.0493e-05	0	0	0
1.81667	-84.3598	985.06	34.0649	1.0178	0	-0.306328	0	-4.58194	0	0	0	0	-0.00177296	0	4.04906e-05	0	0	0
1.825	-106.817	987.087	22.0142	1.01286	0	-0.307424	0	-4.94428	0	0	0	0	-0.00177296	0	4.04882e-05	0	0	0
1.83333	-122.433	999.152	5.43631	1.00487	0	-0.307429	0	-4.61443	0	0	0	0	-0.00177297	0	4.04859e-05	0	0	0
